<svg width="40" height="40" viewBox="0 0 40 40" fill="none" xmlns="http://www.w3.org/2000/svg">
<rect width="40" height="40" rx="8" fill="black"/>
<path fill-rule="evenodd" clip-rule="evenodd" d="M14.401 6.5C14.401 6.33067 14.4116 6.1638 14.432 6H10C7.79086 6 6 7.79086 6 10V13.8829C6.37878 13.764 6.78185 13.6999 7.19989 13.6999H9V10C9 9.44772 9.44772 9 10 9H14.401V6.5ZM9 24.8999H7.19989C6.78185 24.8999 6.37878 24.8357 6 24.7168V30C6 32.2091 7.79086 34 10 34H14.5841C14.4652 33.6212 14.401 33.2181 14.401 32.8V31H10C9.44772 31 9 30.5523 9 30V24.8999ZM31 24.8999H33.4999C33.6693 24.8999 33.8362 24.8893 34 24.8689V30C34 32.2091 32.2091 34 30 34H25.4179C25.5369 33.6212 25.601 33.2181 25.601 32.8V31H30C30.5523 31 31 30.5523 31 30V24.8999ZM34 13.7308C33.8362 13.7104 33.6693 13.6999 33.4999 13.6999H31V10C31 9.44772 30.5523 9 30 9H25.601V6.5C25.601 6.33067 25.5905 6.1638 25.5701 6H30C32.2091 6 34 7.79086 34 10V13.7308Z" fill="#EEEEEE"/>
</svg>
