<svg width="28" height="28" viewBox="0 0 28 28" fill="none" xmlns="http://www.w3.org/2000/svg">
<rect x="0.75" y="0.75" width="26.5" height="26.5" rx="3.25" stroke="black" stroke-width="1.5"/>
<path d="M16.1002 9.63474C15.883 9.63474 15.6687 9.58419 15.4744 9.48709L12.526 8.01289C12.3317 7.91578 12.1174 7.86523 11.9002 7.86523M16.1002 9.63474C16.3174 9.63474 16.5317 9.58419 16.726 9.48709L19.2873 8.20609C19.3941 8.15272 19.5128 8.12755 19.632 8.13298C19.7513 8.13842 19.8672 8.17426 19.9687 8.23712C20.0702 8.29997 20.154 8.38775 20.212 8.49209C20.27 8.59644 20.3004 8.71389 20.3002 8.83329V17.7681C20.3001 17.8981 20.2639 18.0254 20.1955 18.136C20.1271 18.2465 20.0294 18.3358 19.9131 18.3939L16.726 19.9878C16.5317 20.0849 16.3174 20.1354 16.1002 20.1354M16.1002 9.63474V20.1354M16.1002 20.1354C15.883 20.1354 15.6687 20.0849 15.4744 19.9878L12.526 18.5136C12.3317 18.4165 12.1174 18.3659 11.9002 18.3659C11.683 18.3659 11.4687 18.4165 11.2744 18.5136L8.7131 19.7946C8.60624 19.848 8.4875 19.8731 8.36818 19.8677C8.24885 19.8622 8.13291 19.8263 8.03138 19.7634C7.92985 19.7004 7.84612 19.6126 7.78815 19.5081C7.73018 19.4037 7.6999 19.2861 7.7002 19.1667V10.2326C7.70027 10.1026 7.73652 9.97525 7.80488 9.86472C7.87325 9.75419 7.97104 9.66488 8.0873 9.60679L11.2744 8.01289C11.4687 7.91578 11.683 7.86523 11.9002 7.86523M11.9002 7.86523V18.3652" stroke="black" stroke-width="1.5" stroke-linecap="round" stroke-linejoin="round"/>
</svg>
